<svg version="1.1" id="Layer_1" xmlns="http://www.w3.org/2000/svg" x="0" y="0" viewBox="0 0 177.5 133.2" style="enable-background:new 0 0 177.5 133.2" xml:space="preserve"><style>.st0{fill:#231f20}</style><path class="st0" d="M115.4 20.5c-1.9-1.4-3.9-2.6-5.9-3.7-4.9.3-21.9 2.4-22.6 14 0 .1.1.2.2.1 7.5-11.3 23.4-11.2 28.3-10.4zM80.9 44.2c-.8.1-1.2.2-1.5 1-.5 1.1-.1 2-.8 2.6-.3.2-.2.9.2.9 3-.1 5-.1 8.5-2.4.4-.2.3-.8-.1-.9-1.8-.6-4.5-1.3-6.3-1.2zm20-7h.3c.7.1 1.2.3.8-.3-1.9-2.6-5.4.2-6.5 1.4 1 .5 2 1.2 2.9 1.9.2-1.8 1.5-3.2 2.5-3z"/><path class="st0" d="M126.3 72.1c0-12.1-6.3-22.7-15.8-28.7 8.7 3.2 17 8 24.1 13.7-.1-3-.4-5.9-1.1-8.7-6.3-7.1-15.5-12-25.5-12.7-.3-.7-1.3-2.6-3.6-3.8 2.5-.6 5.1-.9 7.7-.9 3.6 0 7.1.6 10.4 1.6 2.2.7 5.1 1.7 5.5 1.9-1.7-2.8-3.6-5.4-5.8-7.8-28.2-6.5-30.8 9.9-30.8 9.9 0 .2 0 .4.2.4s.3.1.5.1.3 0 .4-.1c.6-.7 1.2-1.3 1.9-1.8 1.6-1.3 4.1-2.9 7.7-1.6 2.4 1 4 3.3 4 6 0 2.6-1.6 4.9-3.8 5.9l-.1.1c.1.2.2.5.3.7.5 1.5.8 3.1.8 4.8 0 3.6-1.5 7.1-3.7 9.6.1-.1.3-.6.5-1.2.5-1.2.8-2.4.8-3.8 0-2.8-1.2-5.3-3.1-7.1 1.4 4.5-.1 18-10.8 17.8 0 0-3.8-.2-5.1-.6 0 0 .4 5.8-3.7 6.6-1.2.2-2.4.2-3.6.2-3.2 0-6.4-.9-9.8-2.9-2.6-1.7-3.6-3.5-3.6-4.1.1-4.4 1.3-4.9 3.7-5.5 1-.3 2.7 0 3.8.4.2.1.5-.2.4-.4-.3-.8-.7-1.7-1.1-2-.5-.4-1.2-.5-2-.4-1 0-1.8.6-2.8.5-1.3-.2-1.8-1.2-3.4-1.2-1.4 0-1.5.9-2.4 1-.4 0-.9-.7-.8-1.1.4-1.3 1.7-3.4 2.6-4 2.1-1.5 5.7-3.2 7.9-4.7.8-.6 1.9-8.6 7.9-10.3.5-.1.8-.1 1.2-.4.1 0 .1-.1 0-.2-4.5-13 6.9-18.5 6.8-18.4-2.1 1.6-6 6.4-3.6 12.5.1.1.3.1.3 0 2.4-14.5 20.1-16.5 24.9-16.8-5.3-2.1-11-3.2-17-3.2-26 0-47 21.1-47 47 0 21.4 14.3 39.5 33.9 45.2l-.8-4c-.3-1.5-.4-3.1-.4-4.7 0-10 5.9-18.7 14.3-22.8-2.1 3.5-3.2 7.6-3.2 12 0 2.1.3 3.8 1 5.5 1-5.4 3.8-10.2 7.8-13.6 2.4-2.5 4.8-4.6 7.7-7.9 2.2-2.5 3.8-5.6 4.9-8.7.3-.9.6-1.8.8-2.7.1-.5.2-.9.4-1.4.1-.4.2-1.4.4-1.4.1 0 .2 1.1.2 1.7 0 .5.1 1.2.1 1.7.2 4.6-.3 9.3-1.7 13.7-.1.3-.2.7-.3 1-2.1 6-5.6 11.1-9.4 15.9-3.3 4.2-5.6 9.2-5.6 14.9v2.6c2.8-.2 5.5-.6 8.1-1.3.3-1.3 1.1-4 1.1-4 4.5-12 16.7-20.6 16-37.7 0-.1.1-.1.2-.1 3.2 6.3 1.2 19.8-1 29.7-.4 1.9-.8 3.7-1.2 5.3 2.9-2 5.6-4.3 8-6.8 3.3-5.2 4.4-11.8 4.4-18.4zm-68-3.3c-.2.4-.5 1.1-.7 1.1-.2 0-.6-1.2-.8-1.8-.2-.5-.4-1-.5-1.5-.2-.8-.4-1.7-.5-2.5-.1-1.2.1-2.4.7-3.5 0-.1.6-.8.9-.7 1.5.1 1.8 3.1 1.8 5.1 0 .9-.4 2.9-.9 3.8zm17.4 6.8c-6.7 5.2-6.9 7.9-6.9 7.8-2.5-1.6-5.2-5.6-6.1-7.2-.3.5-.4 1.8-.4 2.3 0 .1 0 .3-.2.1-.3-.4-.5-.7-.8-1.1-.5-.9-1.2-2-1.3-3 0 0-.3-1.8-.2-2.6.1-1.6.6-2.7.9-3.3.9 2 3.9 4.3 5.8 5.1 2.1 1 5.8 2.2 9.2 1.7.1 0 .1.1 0 .2zm-1.3 49v-6.8h-4.3v13.8h8.6V130h-4.3zm-41-5h2.9v12h4.3v-12h3.1v-1.8H33.4zm-5.5 5v5.9c-1.2.1-2.2-.2-2.2-1.3v-11.5h-4v10.7c0 1.6.7 2.4 1.7 2.8.5.2 1 .4 1.5.4H32v-13.9h-4.1v6.9zm37.9-6.8h-7.6v1.3h4.6c.4 0 .7.3.8.6.3.6.2 1.3.2 1.3v1.7h-4.2c-1.1 0-2 1.1-2 2.4v3.5c0 1.4.5 2.2 1.2 2.7.4.3.8.4 1.3.4h7.8v-12c0-1-.9-1.9-2.1-1.9zm-2 12.7c-1.2.1-2 0-2-1.3v-3.8c0-1.1 1-1.4 2-1.4v6.5zm-12.5-5.9v5.9c-1.2.1-2.2-.2-2.2-1.3v-11.5h-4v10.7c0 1.6.7 2.4 1.7 2.8.5.2 1 .4 1.5.4h7.2v-13.9h-4.1l-.1 6.9zm81.4-6.8h-14.2v13.9h4.3v-12.6c1.2 0 2 .3 2 1.4v11.2h4.4v-12.6c1.2 0 2 .3 2 1.4v11.2h4.4v-11.3c0-1.1-1.4-2.6-2.9-2.6zm-16.6 0c-.1-.2-.1-.5-.2-.7-.1-.4-.3-.9-.5-1.2-1.5-3.6-4.6-5.3-8.7-5.3-4.6-.1-7.5 2.1-8.9 5.3-.2.4-.3.8-.4 1.2v.1c-.2.7-.3 1.6-.4 2.4-.2 1.3-.2 2.7-.1 3.9.1.4.1.7.2 1.1.2.9.3 1.6.6 2.3.1.2.1.4.2.6 1.1 2 2.4 3.2 4 3.8 1.5.7 3.1.9 4.9.8 1.6 0 3-.3 4.2-.8 1.5-.7 2.8-1.5 3.7-2.7.3-.4.5-.7.7-1.1.3-.8.6-1.8.8-2.8.1-.4.1-.7.2-1.1.1-1.3.1-2.7 0-3.9-.1-.7-.2-1.4-.3-1.9zm-4.9 6.8c0 1-.1 1.9-.3 2.8-.5 2-1.6 3.5-4.2 3.5-2.8 0-4-1.4-4.5-3.5-.1-.8-.2-1.8-.3-2.8V117c0-.4.1-.9.1-1.2.3-2.5 1.3-4 4.6-4 2.9 0 3.9 1.7 4.3 4 .1.4.1.8.1 1.2 0 .8.1 1.7.1 2.7v3.8c.1.4.1.8.1 1.1zm-98.5-7.5-1.9 7.5-.2.6-.1-.6-2.1-7.5-1.7-6H1.1v20.5h2v-16.2l.5 1.7 2 7.5 2 7h3.2l1.8-7 2-7.5.4-1.7v16.2h4.5v-20.5h-5.3zm78 0c-.5.7-.8 1.2-.8 1.2h-5.6c-.8-.1-1.4-.2-2.3.1-2.1.6-2.7 2.1-3.2 3.2-.4.8-.4 1.9.3 2.7.1.2.3.3.5.4 1.3.9 3.6.8 5 0 .1 0 .2-.1.3-.2 1.2-.8 2.2-2.7 1.7-4.8 0-.1-.1-.2-.1-.3h2.8s-.1.1-.2.3c-.3.7-1 2.4-1.7 3.9-.1.4-.3.8-.5 1.1-.2.3-.3.6-.4.8-.5.8-1.3 2.7-3.4 3.4-1.9.6-3.9-.5-3.9-.5l-.1 1c.3.2.5.2.6.3.2.1.4.1 1 .3 2.2.5 5.3-.9 6.8-2.4.4-.4 1.1-1 2-2.8.2-.3.3-.7.5-1.1.2-.4.4-.8.6-1.4.5-1.2.9-2.8.9-2.8h3.7l.3-1.1h-3.4c.1-.4.3-.8.4-1.2.3-.6.6-1.1.7-1.2.4-.5.8-1.3 2.3-1.2v-1c-1.5.4-2.6 1-3.4 1.8-.5.4-1 1-1.4 1.5zm-6.8 5.2c-.2.5-.4.8-.6 1.2-.5.6-1 1-1.7.8-.5-.1-.8-.4-.8-.8 0-.5.2-1 .5-1.6.2-.5 1.2-2.3 1.2-2.3.2-.3.5-.5.8-.6.7-.1 1.3.1 1.4.6.2.9-.3 1.7-.8 2.7zm62.1-4.5h-7.6v1.3h4.6c.4 0 .7.3.8.6.3.6.2 2 .2 2v1h-4.2c-1.1 0-2 1.1-2 2.4v3.5c0 1.4.5 2.2 1.2 2.7.4.3.8.4 1.3.4h7.8v-12c.1-1-.9-1.9-2.1-1.9zm-1.9 12.7c-1.2.1-2 0-2-1.3v-3.8c0-1.1 1-1.4 2-1.4v6.5zm27.6-12.7h-7.6v1.3h4.6c.4 0 .7.3.8.6.3.6.2 2 .2 2v1h-4.2c-1.1 0-2 1.1-2 2.4v3.5c0 1.4.5 2.2 1.2 2.7.4.3.8.4 1.3.4h7.8v-12c.1-1-.9-1.9-2.1-1.9zm-1.9 12.7c-1.2.1-2 0-2-1.3v-3.8c0-1.1 1-1.4 2-1.4v6.5zM157 119.7v2.9h-2.3v-4.8h-4.3v13.8h4.3v-7.3h2.3v7.3h4.3v-13.8H157zm19-1.9c-.5 0-.9.4-.9.9s.4.9.9.9.9-.4.9-.9-.4-.9-.9-.9zm0 1.5c-.4 0-.7-.3-.7-.7 0-.4.3-.7.7-.7.4 0 .7.3.7.7 0 .4-.3.7-.7.7z"/><path class="st0" d="M176.2 118.4c0 .1 0 .1-.1.1h-.3v-.3h.2c.2.1.2.2.2.2zm.2.7s-.1-.2-.2-.2c0-.1-.1-.1-.1-.1l-.1-.1c.2 0 .3-.1.3-.3 0-.1 0-.2-.1-.2s-.1-.1-.3-.1h-.3v1h.2v-.4h.1s.1.2.2.3c0 .1.1.1.1.1h.2z"/></svg>